<svg xmlns="http://www.w3.org/2000/svg" width="39.594" height="39" viewBox="0 0 39.594 39">
  <defs>
    <style>
      .cls-1 {
        fill: #f5c506;
        fill-rule: evenodd;
      }
    </style>
  </defs>
  <path id="Shape_8_copy_3" data-name="Shape 8 copy 3" class="cls-1" d="M12,36.841L18.235,30.5,12,24.158h5.292L23.527,30.5l-6.239,6.341H12Zm8.032,0L26.267,30.5l-6.239-6.341H25.32L31.559,30.5,25.32,36.841H20.028Zm31.563,0L45.353,30.5l6.239-6.341H46.3L40.06,30.5,46.3,36.841h5.292Zm-8.032,0L37.321,30.5l6.239-6.341H38.268L32.029,30.5l6.239,6.341H43.56ZM25.357,11l6.437,6.146L38.231,11v5.213l-6.437,6.147-6.437-6.147V11Zm0,7.913,6.437,6.146,6.437-6.146v5.213l-6.437,6.147-6.437-6.147V18.909Zm0,31.095,6.437-6.146L38.231,50V44.79l-6.437-6.147L25.357,44.79V50Zm0-7.912,6.437-6.146,6.437,6.146V36.878l-6.437-6.147-6.437,6.147v5.213Z" transform="translate(-12 -11)"/>
</svg>
